<?xml version="1.0" encoding="UTF-8" standalone="no"?>
<!-- Created with Inkscape (http://www.inkscape.org/) -->

<svg
   xmlns:dc="http://purl.org/dc/elements/1.1/"
   xmlns:cc="http://creativecommons.org/ns#"
   xmlns:rdf="http://www.w3.org/1999/02/22-rdf-syntax-ns#"
   xmlns:svg="http://www.w3.org/2000/svg"
   xmlns="http://www.w3.org/2000/svg"
   version="1.2"
   width="744.09448"
   height="1052.3622"
   id="svg2">
  <defs
     id="defs4" />
  <metadata
     id="metadata7">
    <rdf:RDF>
      <cc:Work
         rdf:about="">
        <dc:format>image/svg+xml</dc:format>
        <dc:type
           rdf:resource="http://purl.org/dc/dcmitype/StillImage" />
        <dc:title></dc:title>
      </cc:Work>
    </rdf:RDF>
  </metadata>
  <g
     id="layer1">
    <rect
       width="15.60968"
       height="16.545868"
       x="715.18756"
       y="-568.40436"
       id="rect2996"
       style="fill:#ff0000;fill-opacity:0;stroke:none" />
    <path
       d="m 727.66669,-560.38782 -1.91697,0.54929 0.39017,1.95558 -1.90964,-0.57429 -0.72903,1.85607 -1.29599,-1.51555 -1.61678,1.16729 -0.27089,-1.97563 -1.9912,0.10789 0.84022,-1.80847 -1.73343,-0.98575 1.68456,-1.06713 -0.92531,-1.76643 1.99407,0.013 0.17658,-1.98628 1.67049,1.08903 1.22241,-1.5755 0.81653,1.81929 1.88014,-0.66451 -0.29668,1.97193 1.94094,0.45746 -1.31569,1.49849 z"
       transform="translate(-0.63134534,-0.75761441)"
       id="path3768"
       style="fill:#ff0000;fill-opacity:0.44615389;stroke:none" />
    <path
       d="m 727.66669,-560.38782 -1.91697,0.54929 0.39017,1.95558 -1.90964,-0.57429 -0.72903,1.85607 -1.29599,-1.51555 -1.61678,1.16729 -0.27089,-1.97563 -1.9912,0.10789 0.84022,-1.80847 -1.73343,-0.98575 1.68456,-1.06713 -0.92531,-1.76643 1.99407,0.013 0.17658,-1.98628 1.67049,1.08903 1.22241,-1.5755 0.81653,1.81929 1.88014,-0.66451 -0.29668,1.97193 1.94094,0.45746 -1.31569,1.49849 z"
       transform="translate(2.5253814,2.0203051)"
       id="path3770"
       style="fill:#9cff00;fill-opacity:0.44615389;stroke:none" />
    <path
       d="m 727.66669,-560.38782 -1.91697,0.54929 0.39017,1.95558 -1.90964,-0.57429 -0.72903,1.85607 -1.29599,-1.51555 -1.61678,1.16729 -0.27089,-1.97563 -1.9912,0.10789 0.84022,-1.80847 -1.73343,-0.98575 1.68456,-1.06713 -0.92531,-1.76643 1.99407,0.013 0.17658,-1.98628 1.67049,1.08903 1.22241,-1.5755 0.81653,1.81929 1.88014,-0.66451 -0.29668,1.97193 1.94094,0.45746 -1.31569,1.49849 z"
       transform="translate(-1.7677669,4.7982246)"
       id="path3772"
       style="fill:#005aff;fill-opacity:0.44615389;stroke:none" />
    <rect
       width="15.60968"
       height="16.545868"
       x="734.88556"
       y="-568.40436"
       id="rect3774"
       style="fill:#ff0000;fill-opacity:0;stroke:none" />
    <path
       d="m 741.95703,-559.71503 c 0.16524,0.28621 -0.30428,0.36395 -0.47569,0.27465 -0.46454,-0.24201 -0.37442,-0.89594 -0.0736,-1.22604 0.53811,-0.59048 1.48004,-0.42415 1.97638,0.12746 0.7284,0.80952 0.47766,2.07289 -0.32852,2.72672 -1.0745,0.87145 -2.66894,0.53291 -3.47705,-0.52957 -1.01692,-1.33702 -0.58909,-3.26658 0.73062,-4.22739 1.59834,-1.16368 3.86509,-0.64581 4.97773,0.93167 1.31122,1.85901 0.70288,4.46415 -1.13272,5.72807 -2.11927,1.45925 -5.06358,0.76017 -6.47841,-1.33378 -1.60763,-2.37927 -0.81762,-5.66326 1.53483,-7.22875 2.63909,-1.75624 6.26314,-0.87518 7.97909,1.73589 1.90503,2.89877 0.93283,6.86315 -1.93694,8.72943"
       id="path3778"
       style="fill:none;stroke:#00bbff;stroke-width:1px;stroke-linecap:butt;stroke-linejoin:miter;stroke-opacity:1" />
    <path
       d="m 741.95703,-559.71503 c 0.16524,0.28621 -0.30428,0.36395 -0.47569,0.27465 -0.46454,-0.24201 -0.37442,-0.89594 -0.0736,-1.22604 0.53811,-0.59048 1.48004,-0.42415 1.97638,0.12746 0.7284,0.80952 0.47766,2.07289 -0.32852,2.72672 -1.0745,0.87145 -2.66894,0.53291 -3.47705,-0.52957 -1.01692,-1.33702 -0.58909,-3.26658 0.73062,-4.22739 1.59834,-1.16368 3.86509,-0.64581 4.97773,0.93167 1.31122,1.85901 0.70288,4.46415 -1.13272,5.72807 -2.11927,1.45925 -5.06358,0.76017 -6.47841,-1.33378 -1.60763,-2.37927 -0.81762,-5.66326 1.53483,-7.22875 2.63909,-1.75624 6.26314,-0.87518 7.97909,1.73589 1.90503,2.89877 0.93283,6.86315 -1.93694,8.72943"
       transform="translate(-0.31250004,-0.2232143)"
       id="path3780"
       style="fill:none;stroke:#a6ff00;stroke-width:1px;stroke-linecap:butt;stroke-linejoin:miter;stroke-opacity:1" />
    <path
       d="m 741.95703,-559.71503 c 0.16524,0.28621 -0.30428,0.36395 -0.47569,0.27465 -0.46454,-0.24201 -0.37442,-0.89594 -0.0736,-1.22604 0.53811,-0.59048 1.48004,-0.42415 1.97638,0.12746 0.7284,0.80952 0.47766,2.07289 -0.32852,2.72672 -1.0745,0.87145 -2.66894,0.53291 -3.47705,-0.52957 -1.01692,-1.33702 -0.58909,-3.26658 0.73062,-4.22739 1.59834,-1.16368 3.86509,-0.64581 4.97773,0.93167 1.31122,1.85901 0.70288,4.46415 -1.13272,5.72807 -2.11927,1.45925 -5.06358,0.76017 -6.47841,-1.33378 -1.60763,-2.37927 -0.81762,-5.66326 1.53483,-7.22875 2.63909,-1.75624 6.26314,-0.87518 7.97909,1.73589 1.90503,2.89877 0.93283,6.86315 -1.93694,8.72943"
       transform="translate(-0.13392858,-0.13392858)"
       id="path3776"
       style="fill:none;stroke:#000000;stroke-width:1px;stroke-linecap:butt;stroke-linejoin:miter;stroke-opacity:1" />
    <rect
       width="15.60968"
       height="16.545868"
       x="753.45697"
       y="-568.40436"
       id="rect3782"
       style="fill:#ff0000;fill-opacity:0;stroke:none" />
    <flowRoot
       transform="matrix(0.96592583,-0.25881905,0.25881905,0.96592583,175.44816,194.67372)"
       id="flowRoot3784"
       xml:space="preserve"
       style="font-size:8px;font-style:normal;font-weight:normal;line-height:125%;letter-spacing:0px;word-spacing:0px;fill:#000000;fill-opacity:1;stroke:none;font-family:Sans"><flowRegion
         id="flowRegion3786"><rect
           width="7.410697"
           height="11.8304"
           x="756.25"
           y="-587.63782"
           id="rect3788"
           style="font-size:8px" /></flowRegion><flowPara
         id="flowPara3790"
         style="font-size:8px;font-weight:bold;-inkscape-font-specification:Sans Bold">A</flowPara></flowRoot>    <flowRoot
       transform="matrix(0.96592583,0.25881905,-0.25881905,0.96592583,-119.10045,-193.71516)"
       id="flowRoot3792"
       xml:space="preserve"
       style="font-size:8px;font-style:normal;font-weight:normal;line-height:125%;letter-spacing:0px;word-spacing:0px;fill:#000000;fill-opacity:1;stroke:none;font-family:Sans"><flowRegion
         id="flowRegion3794"><rect
           width="7.410697"
           height="11.8304"
           x="756.25"
           y="-587.63782"
           id="rect3796"
           style="font-size:8px" /></flowRegion><flowPara
         id="flowPara3798"
         style="font-size:8px;font-weight:bold;-inkscape-font-specification:Sans Bold">B</flowPara></flowRoot>    <flowRoot
       transform="matrix(0.96592583,-0.25881906,0.25881906,0.96592583,176.81476,202.11774)"
       id="flowRoot3800"
       xml:space="preserve"
       style="font-size:8px;font-style:normal;font-weight:normal;line-height:125%;letter-spacing:0px;word-spacing:0px;fill:#000000;fill-opacity:1;stroke:none;font-family:Sans"><flowRegion
         id="flowRegion3802"><rect
           width="7.410697"
           height="11.8304"
           x="756.25"
           y="-587.63782"
           id="rect3804"
           style="font-size:8px" /></flowRegion><flowPara
         id="flowPara3806"
         style="font-size:8px;font-weight:bold;-inkscape-font-specification:Sans Bold">C</flowPara></flowRoot>  </g>
</svg>
